<?xml version="1.0" standalone="no"?>
<!DOCTYPE svg PUBLIC "-//W3C//DTD SVG 20010904//EN"
 "http://www.w3.org/TR/2001/REC-SVG-20010904/DTD/svg10.dtd">
<svg version="1.0" xmlns="http://www.w3.org/2000/svg"
 width="560.000000pt" height="560.000000pt" viewBox="0 0 560.000000 560.000000"
 preserveAspectRatio="xMidYMid meet">
<metadata>
Created by potrace 1.11, written by Peter Selinger 2001-2013
</metadata>
<g transform="translate(0.000000,560.000000) scale(0.100000,-0.100000)"
fill="#000000" stroke="none">
<path d="M3112 5240 c-108 -49 -195 -66 -547 -110 -196 -24 -266 -41 -372 -90
-115 -54 -210 -120 -301 -210 -202 -200 -281 -480 -270 -955 l4 -194 -57 -26
c-31 -14 -60 -32 -63 -41 -3 -9 -6 -46 -6 -83 0 -75 16 -101 61 -101 36 0 97
-19 106 -33 4 -6 10 -54 14 -107 8 -119 36 -193 95 -259 53 -59 141 -106 229
-122 95 -18 297 -7 375 20 127 44 214 117 264 221 25 55 31 80 34 159 l4 93
34 14 c40 17 92 17 154 1 l45 -12 6 -105 c7 -129 32 -199 95 -269 53 -59 141
-106 229 -122 95 -18 297 -7 375 20 127 44 214 117 263 221 25 52 32 81 36
160 l6 95 35 12 c19 7 51 12 71 12 54 1 69 24 69 107 0 41 -5 76 -12 85 -7 9
-44 29 -81 45 -65 28 -68 30 -63 59 3 17 9 118 12 225 11 333 -24 545 -119
725 -38 71 -159 196 -270 279 -43 32 -81 64 -84 72 -3 8 2 32 11 54 9 22 16
54 16 70 0 37 -21 39 -95 11 -100 -37 -96 -38 -89 7 4 25 2 42 -5 47 -7 4 -45
-9 -86 -29 -41 -19 -75 -33 -75 -31 0 2 7 20 16 39 18 36 14 66 -8 66 -7 0
-32 -9 -56 -20z m293 -640 c25 -32 88 -93 140 -135 195 -157 253 -272 291
-580 8 -66 17 -130 20 -141 6 -22 5 -22 -58 -9 -35 7 -101 16 -148 20 -52 5
-100 15 -123 27 -102 51 -290 73 -397 45 -35 -9 -46 -17 -48 -35 -2 -13 2 -30
8 -37 10 -12 9 -16 -1 -19 -25 -7 -163 -54 -209 -71 -61 -23 -138 -15 -221 24
-37 16 -87 35 -113 42 -37 9 -44 14 -35 25 6 7 9 23 7 36 -9 68 -304 61 -445
-10 -23 -12 -71 -22 -123 -27 -47 -4 -116 -13 -153 -21 -38 -8 -70 -14 -73
-14 -9 0 8 107 38 229 54 225 122 367 227 471 36 36 95 99 131 139 l65 72 480
4 c320 3 510 9 570 18 50 7 98 11 108 8 10 -2 38 -30 62 -61z m-1065 -1010
c104 -14 161 -35 198 -73 42 -43 52 -76 54 -167 0 -63 -4 -88 -25 -133 -64
-140 -262 -213 -507 -188 -179 19 -261 86 -289 236 -15 78 -14 112 4 172 27
90 94 134 237 152 89 12 240 12 328 1z m1240 0 c104 -14 161 -35 198 -73 42
-43 52 -76 54 -167 0 -63 -4 -88 -25 -133 -64 -140 -262 -213 -509 -187 -151
15 -248 81 -278 188 -48 173 -1 307 121 347 96 32 295 43 439 25z"/>
<path d="M2115 3461 c-47 -21 -115 -93 -115 -121 0 -26 1 -26 79 13 56 27 76
32 141 32 65 0 85 -5 141 -32 37 -18 69 -33 73 -33 18 0 1 45 -31 82 -51 56
-102 78 -183 78 -42 0 -79 -7 -105 -19z"/>
<path d="M3275 3461 c-47 -21 -115 -93 -115 -121 0 -26 1 -26 79 13 56 27 76
32 141 32 65 0 85 -5 141 -32 37 -18 69 -33 73 -33 18 0 1 45 -31 82 -51 56
-102 78 -183 78 -42 0 -79 -7 -105 -19z"/>
<path d="M2560 2984 c0 -33 41 -81 92 -110 48 -26 62 -29 148 -29 86 0 100 3
148 29 51 29 92 77 92 110 0 14 -25 16 -240 16 -215 0 -240 -2 -240 -16z"/>
<path d="M2532 2628 c-20 -20 -14 -71 13 -110 15 -23 46 -47 82 -65 54 -26 67
-28 173 -28 106 0 119 2 173 28 65 32 107 84 107 132 0 62 -60 78 -83 23 -28
-66 -95 -100 -197 -100 -102 0 -169 34 -197 100 -14 34 -47 44 -71 20z"/>
<path d="M2320 1964 c0 -19 -7 -24 -37 -29 -135 -21 -227 -41 -288 -63 -181
-63 -292 -177 -311 -316 l-7 -46 -90 -45 c-49 -25 -124 -69 -166 -98 -94 -64
-254 -217 -326 -311 -63 -83 -125 -184 -125 -204 0 -7 60 -73 132 -145 248
-247 531 -431 855 -555 45 -18 87 -32 93 -32 7 0 10 149 10 455 0 250 2 455 5
455 2 0 34 -14 70 -32 l65 -32 0 -447 0 -447 138 -26 c335 -63 610 -62 943 4
430 86 839 298 1164 603 130 121 188 192 180 218 -18 55 -138 212 -249 324
-130 131 -220 197 -363 269 l-90 45 -7 47 c-19 139 -130 253 -311 316 -61 22
-153 42 -287 63 -31 5 -38 10 -38 29 l0 23 -82 -33 c-130 -51 -231 -69 -398
-69 -167 0 -268 18 -397 69 l-83 33 0 -23z m173 -198 c135 -39 284 -53 416
-38 110 12 249 47 329 82 l42 19 0 -137 c0 -177 -12 -250 -56 -340 -89 -183
-294 -292 -491 -262 -153 23 -290 124 -357 262 -44 90 -56 163 -56 340 l0 137
43 -19 c23 -10 82 -30 130 -44z m1047 -1148 c0 -409 0 -412 -22 -435 -27 -29
-65 -29 -95 -1 l-23 21 0 382 0 381 63 31 c34 18 65 32 70 32 4 1 7 -184 7
-411z"/>
</g>
</svg>
